<svg id="mermaid-svg" xmlns="http://www.w3.org/2000/svg" class="flowchart" style="max-width: 100%;" viewBox="0 0 3161.890625 218" role="graphics-document document" aria-roledescription="flowchart-v2" width="1600px" height="900px" xmlns:xlink="http://www.w3.org/1999/xlink"><style xmlns="http://www.w3.org/1999/xhtml">@import url("https://cdnjs.cloudflare.com/ajax/libs/font-awesome/6.7.2/css/all.min.css");</style><style>#mermaid-svg{font-family:"trebuchet ms",verdana,arial,sans-serif;font-size:16px;fill:#000000;}@keyframes edge-animation-frame{from{stroke-dashoffset:0;}}@keyframes dash{to{stroke-dashoffset:0;}}#mermaid-svg .edge-animation-slow{stroke-dasharray:9,5!important;stroke-dashoffset:900;animation:dash 50s linear infinite;stroke-linecap:round;}#mermaid-svg .edge-animation-fast{stroke-dasharray:9,5!important;stroke-dashoffset:900;animation:dash 20s linear infinite;stroke-linecap:round;}#mermaid-svg .error-icon{fill:#552222;}#mermaid-svg .error-text{fill:#552222;stroke:#552222;}#mermaid-svg .edge-thickness-normal{stroke-width:1px;}#mermaid-svg .edge-thickness-thick{stroke-width:3.5px;}#mermaid-svg .edge-pattern-solid{stroke-dasharray:0;}#mermaid-svg .edge-thickness-invisible{stroke-width:0;fill:none;}#mermaid-svg .edge-pattern-dashed{stroke-dasharray:3;}#mermaid-svg .edge-pattern-dotted{stroke-dasharray:2;}#mermaid-svg .marker{fill:#666;stroke:#666;}#mermaid-svg .marker.cross{stroke:#666;}#mermaid-svg svg{font-family:"trebuchet ms",verdana,arial,sans-serif;font-size:16px;}#mermaid-svg p{margin:0;}#mermaid-svg .label{font-family:"trebuchet ms",verdana,arial,sans-serif;color:#000000;}#mermaid-svg .cluster-label text{fill:#333;}#mermaid-svg .cluster-label span{color:#333;}#mermaid-svg .cluster-label span p{background-color:transparent;}#mermaid-svg .label text,#mermaid-svg span{fill:#000000;color:#000000;}#mermaid-svg .node rect,#mermaid-svg .node circle,#mermaid-svg .node ellipse,#mermaid-svg .node polygon,#mermaid-svg .node path{fill:#eee;stroke:#999;stroke-width:1px;}#mermaid-svg .rough-node .label text,#mermaid-svg .node .label text,#mermaid-svg .image-shape .label,#mermaid-svg .icon-shape .label{text-anchor:middle;}#mermaid-svg .node .katex path{fill:#000;stroke:#000;stroke-width:1px;}#mermaid-svg .rough-node .label,#mermaid-svg .node .label,#mermaid-svg .image-shape .label,#mermaid-svg .icon-shape .label{text-align:center;}#mermaid-svg .node.clickable{cursor:pointer;}#mermaid-svg .root .anchor path{fill:#666!important;stroke-width:0;stroke:#666;}#mermaid-svg .arrowheadPath{fill:#333333;}#mermaid-svg .edgePath .path{stroke:#666;stroke-width:2.0px;}#mermaid-svg .flowchart-link{stroke:#666;fill:none;}#mermaid-svg .edgeLabel{background-color:white;text-align:center;}#mermaid-svg .edgeLabel p{background-color:white;}#mermaid-svg .edgeLabel rect{opacity:0.5;background-color:white;fill:white;}#mermaid-svg .labelBkg{background-color:rgba(255, 255, 255, 0.5);}#mermaid-svg .cluster rect{fill:hsl(0, 0%, 98.9215686275%);stroke:#707070;stroke-width:1px;}#mermaid-svg .cluster text{fill:#333;}#mermaid-svg .cluster span{color:#333;}#mermaid-svg div.mermaidTooltip{position:absolute;text-align:center;max-width:200px;padding:2px;font-family:"trebuchet ms",verdana,arial,sans-serif;font-size:12px;background:hsl(-160, 0%, 93.3333333333%);border:1px solid #707070;border-radius:2px;pointer-events:none;z-index:100;}#mermaid-svg .flowchartTitleText{text-anchor:middle;font-size:18px;fill:#000000;}#mermaid-svg rect.text{fill:none;stroke-width:0;}#mermaid-svg .icon-shape,#mermaid-svg .image-shape{background-color:white;text-align:center;}#mermaid-svg .icon-shape p,#mermaid-svg .image-shape p{background-color:white;padding:2px;}#mermaid-svg .icon-shape rect,#mermaid-svg .image-shape rect{opacity:0.5;background-color:white;fill:white;}#mermaid-svg .label-icon{display:inline-block;height:1em;overflow:visible;vertical-align:-0.125em;}#mermaid-svg .node .label-icon path{fill:currentColor;stroke:revert;stroke-width:revert;}#mermaid-svg :root{--mermaid-font-family:"trebuchet ms",verdana,arial,sans-serif;}</style><g><marker id="mermaid-svg_flowchart-v2-pointEnd" class="marker flowchart-v2" viewBox="0 0 10 10" refX="5" refY="5" markerUnits="userSpaceOnUse" markerWidth="8" markerHeight="8" orient="auto"><path d="M 0 0 L 10 5 L 0 10 z" class="arrowMarkerPath" style="stroke-width: 1; stroke-dasharray: 1, 0;"/></marker><marker id="mermaid-svg_flowchart-v2-pointStart" class="marker flowchart-v2" viewBox="0 0 10 10" refX="4.5" refY="5" markerUnits="userSpaceOnUse" markerWidth="8" markerHeight="8" orient="auto"><path d="M 0 5 L 10 10 L 10 0 z" class="arrowMarkerPath" style="stroke-width: 1; stroke-dasharray: 1, 0;"/></marker><marker id="mermaid-svg_flowchart-v2-circleEnd" class="marker flowchart-v2" viewBox="0 0 10 10" refX="11" refY="5" markerUnits="userSpaceOnUse" markerWidth="11" markerHeight="11" orient="auto"><circle cx="5" cy="5" r="5" class="arrowMarkerPath" style="stroke-width: 1; stroke-dasharray: 1, 0;"/></marker><marker id="mermaid-svg_flowchart-v2-circleStart" class="marker flowchart-v2" viewBox="0 0 10 10" refX="-1" refY="5" markerUnits="userSpaceOnUse" markerWidth="11" markerHeight="11" orient="auto"><circle cx="5" cy="5" r="5" class="arrowMarkerPath" style="stroke-width: 1; stroke-dasharray: 1, 0;"/></marker><marker id="mermaid-svg_flowchart-v2-crossEnd" class="marker cross flowchart-v2" viewBox="0 0 11 11" refX="12" refY="5.2" markerUnits="userSpaceOnUse" markerWidth="11" markerHeight="11" orient="auto"><path d="M 1,1 l 9,9 M 10,1 l -9,9" class="arrowMarkerPath" style="stroke-width: 2; stroke-dasharray: 1, 0;"/></marker><marker id="mermaid-svg_flowchart-v2-crossStart" class="marker cross flowchart-v2" viewBox="0 0 11 11" refX="-1" refY="5.2" markerUnits="userSpaceOnUse" markerWidth="11" markerHeight="11" orient="auto"><path d="M 1,1 l 9,9 M 10,1 l -9,9" class="arrowMarkerPath" style="stroke-width: 2; stroke-dasharray: 1, 0;"/></marker><g class="root"><g class="clusters"><g class="cluster " id="System" data-look="classic"><rect style="" x="8" y="97" width="3145.890625" height="113"/><g class="cluster-label " transform="translate(1480.9453125, 97)"><foreignObject width="200" height="48"><div xmlns="http://www.w3.org/1999/xhtml" style="display: table; white-space: break-spaces; line-height: 1.5; max-width: 200px; text-align: center; width: 200px;"><span class="nodeLabel "><p>Share Market Management and Prediction System</p></span></div></foreignObject></g></g></g><g class="edgePaths"><path d="M1119.602,29.215L1311.858,36.346C1504.115,43.477,1888.628,57.738,2080.884,69.036C2273.141,80.333,2273.141,88.667,2305.486,99.691C2337.831,110.716,2402.522,124.431,2434.867,131.289L2467.212,138.147" id="L_User_UC_Login_0" class=" edge-thickness-normal edge-pattern-solid edge-thickness-normal edge-pattern-solid flowchart-link" style=";" data-edge="true" data-et="edge" data-id="L_User_UC_Login_0" data-points="W3sieCI6MTExOS42MDE1NjI1LCJ5IjoyOS4yMTQ4OTEwNTMxMjAyNDd9LHsieCI6MjI3My4xNDA2MjUsInkiOjcyfSx7IngiOjIyNzMuMTQwNjI1LCJ5Ijo5N30seyJ4IjoyNDcxLjEyNSwieSI6MTM4Ljk3NjY1MDk4NDQ5MjA3fV0=" marker-end="url(#mermaid-svg_flowchart-v2-pointEnd)"/><path d="M1119.602,30.194L1223.611,37.162C1327.62,44.129,1535.638,58.065,1639.647,69.199C1743.656,80.333,1743.656,88.667,1743.731,98.417C1743.805,108.167,1743.954,119.334,1744.028,124.917L1744.103,130.5" id="L_User_UC_ViewDashboard_0" class=" edge-thickness-normal edge-pattern-solid edge-thickness-normal edge-pattern-solid flowchart-link" style=";" data-edge="true" data-et="edge" data-id="L_User_UC_ViewDashboard_0" data-points="W3sieCI6MTExOS42MDE1NjI1LCJ5IjozMC4xOTQwNjgxODk2NTYxOTZ9LHsieCI6MTc0My42NTYyNSwieSI6NzJ9LHsieCI6MTc0My42NTYyNSwieSI6OTd9LHsieCI6MTc0NC4xNTYyNSwieSI6MTM0LjV9XQ==" marker-end="url(#mermaid-svg_flowchart-v2-pointEnd)"/><path d="M1119.602,31.698L1179.082,38.415C1238.563,45.132,1357.523,58.566,1417.004,69.45C1476.484,80.333,1476.484,88.667,1476.559,98.417C1476.633,108.167,1476.782,119.334,1476.857,124.917L1476.931,130.5" id="L_User_UC_Trade_0" class=" edge-thickness-normal edge-pattern-solid edge-thickness-normal edge-pattern-solid flowchart-link" style=";" data-edge="true" data-et="edge" data-id="L_User_UC_Trade_0" data-points="W3sieCI6MTExOS42MDE1NjI1LCJ5IjozMS42OTgwMDE2NDM1ODMwMTJ9LHsieCI6MTQ3Ni40ODQzNzUsInkiOjcyfSx7IngiOjE0NzYuNDg0Mzc1LCJ5Ijo5N30seyJ4IjoxNDc2Ljk4NDM3NSwieSI6MTM0LjV9XQ==" marker-end="url(#mermaid-svg_flowchart-v2-pointEnd)"/><path d="M1119.602,39.808L1134.465,45.173C1149.328,50.539,1179.055,61.269,1193.918,70.801C1208.781,80.333,1208.781,88.667,1208.852,96.417C1208.922,104.167,1209.062,111.334,1209.133,114.917L1209.203,118.501" id="L_User_UC_Invoice_0" class=" edge-thickness-normal edge-pattern-solid edge-thickness-normal edge-pattern-solid flowchart-link" style=";" data-edge="true" data-et="edge" data-id="L_User_UC_Invoice_0" data-points="W3sieCI6MTExOS42MDE1NjI1LCJ5IjozOS44MDc4MDh9LHsieCI6MTIwOC43ODEyNSwieSI6NzJ9LHsieCI6MTIwOC43ODEyNSwieSI6OTd9LHsieCI6MTIwOS4yODEyNSwieSI6MTIyLjV9XQ==" marker-end="url(#mermaid-svg_flowchart-v2-pointEnd)"/><path d="M1054.82,39.808L1039.79,45.173C1024.76,50.539,994.701,61.269,979.671,70.801C964.641,80.333,964.641,88.667,964.715,98.417C964.79,108.167,964.938,119.334,965.013,124.917L965.087,130.5" id="L_User_UC_Dividend_0" class=" edge-thickness-normal edge-pattern-solid edge-thickness-normal edge-pattern-solid flowchart-link" style=";" data-edge="true" data-et="edge" data-id="L_User_UC_Dividend_0" data-points="W3sieCI6MTA1NC44MjAzMTI1LCJ5IjozOS44MDc4MDh9LHsieCI6OTY0LjY0MDYyNSwieSI6NzJ9LHsieCI6OTY0LjY0MDYyNSwieSI6OTd9LHsieCI6OTY1LjE0MDYyNSwieSI6MTM0LjV9XQ==" marker-end="url(#mermaid-svg_flowchart-v2-pointEnd)"/><path d="M1054.82,31.936L999.1,38.613C943.38,45.291,831.94,58.645,776.22,69.489C720.5,80.333,720.5,88.667,720.57,96.417C720.641,104.167,720.781,111.334,720.851,114.917L720.922,118.501" id="L_User_UC_Notifications_0" class=" edge-thickness-normal edge-pattern-solid edge-thickness-normal edge-pattern-solid flowchart-link" style=";" data-edge="true" data-et="edge" data-id="L_User_UC_Notifications_0" data-points="W3sieCI6MTA1NC44MjAzMTI1LCJ5IjozMS45MzU5MzZ9LHsieCI6NzIwLjUsInkiOjcyfSx7IngiOjcyMC41LCJ5Ijo5N30seyJ4Ijo3MjEsInkiOjEyMi41fV0=" marker-end="url(#mermaid-svg_flowchart-v2-pointEnd)"/><path d="M1054.82,30.227L952.267,37.189C849.714,44.151,644.607,58.076,542.053,69.205C439.5,80.333,439.5,88.667,439.57,96.417C439.641,104.167,439.781,111.334,439.851,114.917L439.922,118.501" id="L_User_UC_Reports_0" class=" edge-thickness-normal edge-pattern-solid edge-thickness-normal edge-pattern-solid flowchart-link" style=";" data-edge="true" data-et="edge" data-id="L_User_UC_Reports_0" data-points="W3sieCI6MTA1NC44MjAzMTI1LCJ5IjozMC4yMjcwNjgwNjg1MTUxNDV9LHsieCI6NDM5LjUsInkiOjcyfSx7IngiOjQzOS41LCJ5Ijo5N30seyJ4Ijo0NDAsInkiOjEyMi41fV0=" marker-end="url(#mermaid-svg_flowchart-v2-pointEnd)"/><path d="M1054.82,29.553L905.434,36.627C756.047,43.702,457.273,57.851,307.887,69.092C158.5,80.333,158.5,88.667,158.57,96.417C158.641,104.167,158.781,111.334,158.851,114.917L158.922,118.501" id="L_User_UC_ViewPrediction_0" class=" edge-thickness-normal edge-pattern-solid edge-thickness-normal edge-pattern-solid flowchart-link" style=";" data-edge="true" data-et="edge" data-id="L_User_UC_ViewPrediction_0" data-points="W3sieCI6MTA1NC44MjAzMTI1LCJ5IjoyOS41NTI4NjEyNjcwNTQzOTZ9LHsieCI6MTU4LjUsInkiOjcyfSx7IngiOjE1OC41LCJ5Ijo5N30seyJ4IjoxNTksInkiOjEyMi41fV0=" marker-end="url(#mermaid-svg_flowchart-v2-pointEnd)"/><path d="M2590.836,34.94L2625.192,41.117C2659.548,47.293,2728.26,59.647,2762.617,69.99C2796.973,80.333,2796.973,88.667,2767.159,99.544C2737.345,110.42,2677.717,123.841,2647.904,130.551L2618.09,137.261" id="L_Admin_UC_Login_0" class=" edge-thickness-normal edge-pattern-solid edge-thickness-normal edge-pattern-solid flowchart-link" style=";" data-edge="true" data-et="edge" data-id="L_Admin_UC_Login_0" data-points="W3sieCI6MjU5MC44MzU5Mzc1LCJ5IjozNC45Mzk4Nzg0MTY1NDMwMX0seyJ4IjoyNzk2Ljk3MjY1NjI1LCJ5Ijo3Mn0seyJ4IjoyNzk2Ljk3MjY1NjI1LCJ5Ijo5N30seyJ4IjoyNjE0LjE4NzUsInkiOjEzOC4xMzk0OTk5NDYzNDYxOH1d" marker-end="url(#mermaid-svg_flowchart-v2-pointEnd)"/><path d="M2590.836,35.557L2621.859,41.631C2652.882,47.705,2714.927,59.852,2745.95,70.093C2776.973,80.333,2776.973,88.667,2804.358,98.969C2831.743,109.271,2886.514,121.542,2913.899,127.677L2941.284,133.813" id="L_Admin_UC_ManageCompanies_0" class=" edge-thickness-normal edge-pattern-solid edge-thickness-normal edge-pattern-solid flowchart-link" style=";" data-edge="true" data-et="edge" data-id="L_Admin_UC_ManageCompanies_0" data-points="W3sieCI6MjU5MC44MzU5Mzc1LCJ5IjozNS41NTcyNjAyNjQ0NTE5fSx7IngiOjI3NzYuOTcyNjU2MjUsInkiOjcyfSx7IngiOjI3NzYuOTcyNjU2MjUsInkiOjk3fSx7IngiOjI5NDUuMTg3NSwieSI6MTM0LjY4NzEyMTU0ODkwOTN9XQ==" marker-end="url(#mermaid-svg_flowchart-v2-pointEnd)"/><path d="M2590.836,47.194L2599.142,51.329C2607.448,55.463,2624.06,63.731,2632.366,72.032C2640.672,80.333,2640.672,88.667,2650.354,96.829C2660.036,104.991,2679.4,112.983,2689.082,116.978L2698.764,120.974" id="L_Admin_UC_ManageBrokers_0" class=" edge-thickness-normal edge-pattern-solid edge-thickness-normal edge-pattern-solid flowchart-link" style=";" data-edge="true" data-et="edge" data-id="L_Admin_UC_ManageBrokers_0" data-points="W3sieCI6MjU5MC44MzU5Mzc1LCJ5Ijo0Ny4xOTQzMDcxNDkxNjE1Mn0seyJ4IjoyNjQwLjY3MTg3NSwieSI6NzJ9LHsieCI6MjY0MC42NzE4NzUsInkiOjk3fSx7IngiOjI3MDIuNDYxOTc0NTU3NTIyLCJ5IjoxMjIuNX1d" marker-end="url(#mermaid-svg_flowchart-v2-pointEnd)"/><path d="M2514.477,43.657L2502.671,48.381C2490.865,53.104,2467.253,62.552,2455.447,71.443C2443.641,80.333,2443.641,88.667,2434.124,96.825C2424.607,104.984,2405.573,112.968,2396.056,116.961L2386.539,120.953" id="L_Admin_UC_Monitor_0" class=" edge-thickness-normal edge-pattern-solid edge-thickness-normal edge-pattern-solid flowchart-link" style=";" data-edge="true" data-et="edge" data-id="L_Admin_UC_Monitor_0" data-points="W3sieCI6MjUxNC40NzY1NjI1LCJ5Ijo0My42NTY2OTU0NjQzNjI4NX0seyJ4IjoyNDQzLjY0MDYyNSwieSI6NzJ9LHsieCI6MjQ0My42NDA2MjUsInkiOjk3fSx7IngiOjIzODIuODUwNTI1NDQyNDc4LCJ5IjoxMjIuNX1d" marker-end="url(#mermaid-svg_flowchart-v2-pointEnd)"/><path d="M2514.477,34.559L2477.587,40.8C2440.698,47.04,2366.919,59.52,2330.03,69.927C2293.141,80.333,2293.141,88.667,2268.29,98.151C2243.439,107.635,2193.738,118.27,2168.887,123.588L2144.036,128.905" id="L_Admin_UC_DatasetManage_0" class=" edge-thickness-normal edge-pattern-solid edge-thickness-normal edge-pattern-solid flowchart-link" style=";" data-edge="true" data-et="edge" data-id="L_Admin_UC_DatasetManage_0" data-points="W3sieCI6MjUxNC40NzY1NjI1LCJ5IjozNC41NTk0MzQ3NTkwMDM0NH0seyJ4IjoyMjkzLjE0MDYyNSwieSI6NzJ9LHsieCI6MjI5My4xNDA2MjUsInkiOjk3fSx7IngiOjIxNDAuMTI1LCJ5IjoxMjkuNzQyMTE1MzUxMTA2NDZ9XQ==" marker-end="url(#mermaid-svg_flowchart-v2-pointEnd)"/></g><g class="edgeLabels"><g class="edgeLabel"><g class="label" data-id="L_User_UC_Login_0" transform="translate(0, 0)"><foreignObject width="0" height="0"><div xmlns="http://www.w3.org/1999/xhtml" class="labelBkg" style="display: table-cell; white-space: nowrap; line-height: 1.5; max-width: 200px; text-align: center;"><span class="edgeLabel "></span></div></foreignObject></g></g><g class="edgeLabel"><g class="label" data-id="L_User_UC_ViewDashboard_0" transform="translate(0, 0)"><foreignObject width="0" height="0"><div xmlns="http://www.w3.org/1999/xhtml" class="labelBkg" style="display: table-cell; white-space: nowrap; line-height: 1.5; max-width: 200px; text-align: center;"><span class="edgeLabel "></span></div></foreignObject></g></g><g class="edgeLabel"><g class="label" data-id="L_User_UC_Trade_0" transform="translate(0, 0)"><foreignObject width="0" height="0"><div xmlns="http://www.w3.org/1999/xhtml" class="labelBkg" style="display: table-cell; white-space: nowrap; line-height: 1.5; max-width: 200px; text-align: center;"><span class="edgeLabel "></span></div></foreignObject></g></g><g class="edgeLabel"><g class="label" data-id="L_User_UC_Invoice_0" transform="translate(0, 0)"><foreignObject width="0" height="0"><div xmlns="http://www.w3.org/1999/xhtml" class="labelBkg" style="display: table-cell; white-space: nowrap; line-height: 1.5; max-width: 200px; text-align: center;"><span class="edgeLabel "></span></div></foreignObject></g></g><g class="edgeLabel"><g class="label" data-id="L_User_UC_Dividend_0" transform="translate(0, 0)"><foreignObject width="0" height="0"><div xmlns="http://www.w3.org/1999/xhtml" class="labelBkg" style="display: table-cell; white-space: nowrap; line-height: 1.5; max-width: 200px; text-align: center;"><span class="edgeLabel "></span></div></foreignObject></g></g><g class="edgeLabel"><g class="label" data-id="L_User_UC_Notifications_0" transform="translate(0, 0)"><foreignObject width="0" height="0"><div xmlns="http://www.w3.org/1999/xhtml" class="labelBkg" style="display: table-cell; white-space: nowrap; line-height: 1.5; max-width: 200px; text-align: center;"><span class="edgeLabel "></span></div></foreignObject></g></g><g class="edgeLabel"><g class="label" data-id="L_User_UC_Reports_0" transform="translate(0, 0)"><foreignObject width="0" height="0"><div xmlns="http://www.w3.org/1999/xhtml" class="labelBkg" style="display: table-cell; white-space: nowrap; line-height: 1.5; max-width: 200px; text-align: center;"><span class="edgeLabel "></span></div></foreignObject></g></g><g class="edgeLabel"><g class="label" data-id="L_User_UC_ViewPrediction_0" transform="translate(0, 0)"><foreignObject width="0" height="0"><div xmlns="http://www.w3.org/1999/xhtml" class="labelBkg" style="display: table-cell; white-space: nowrap; line-height: 1.5; max-width: 200px; text-align: center;"><span class="edgeLabel "></span></div></foreignObject></g></g><g class="edgeLabel"><g class="label" data-id="L_Admin_UC_Login_0" transform="translate(0, 0)"><foreignObject width="0" height="0"><div xmlns="http://www.w3.org/1999/xhtml" class="labelBkg" style="display: table-cell; white-space: nowrap; line-height: 1.5; max-width: 200px; text-align: center;"><span class="edgeLabel "></span></div></foreignObject></g></g><g class="edgeLabel"><g class="label" data-id="L_Admin_UC_ManageCompanies_0" transform="translate(0, 0)"><foreignObject width="0" height="0"><div xmlns="http://www.w3.org/1999/xhtml" class="labelBkg" style="display: table-cell; white-space: nowrap; line-height: 1.5; max-width: 200px; text-align: center;"><span class="edgeLabel "></span></div></foreignObject></g></g><g class="edgeLabel"><g class="label" data-id="L_Admin_UC_ManageBrokers_0" transform="translate(0, 0)"><foreignObject width="0" height="0"><div xmlns="http://www.w3.org/1999/xhtml" class="labelBkg" style="display: table-cell; white-space: nowrap; line-height: 1.5; max-width: 200px; text-align: center;"><span class="edgeLabel "></span></div></foreignObject></g></g><g class="edgeLabel"><g class="label" data-id="L_Admin_UC_Monitor_0" transform="translate(0, 0)"><foreignObject width="0" height="0"><div xmlns="http://www.w3.org/1999/xhtml" class="labelBkg" style="display: table-cell; white-space: nowrap; line-height: 1.5; max-width: 200px; text-align: center;"><span class="edgeLabel "></span></div></foreignObject></g></g><g class="edgeLabel"><g class="label" data-id="L_Admin_UC_DatasetManage_0" transform="translate(0, 0)"><foreignObject width="0" height="0"><div xmlns="http://www.w3.org/1999/xhtml" class="labelBkg" style="display: table-cell; white-space: nowrap; line-height: 1.5; max-width: 200px; text-align: center;"><span class="edgeLabel "></span></div></foreignObject></g></g></g><g class="nodes"><g class="node default  " id="flowchart-User-0" transform="translate(1086.7109375, 27.5)"><polygon points="0,0 48.78125,0 48.78125,-39 0,-39 0,0 -8,0 56.78125,0 56.78125,-39 -8,-39 -8,0" class="label-container" transform="translate(-24.390625,19.5)"/><g class="label" style="" transform="translate(-16.890625, -12)"><rect/><foreignObject width="33.78125" height="24"><div xmlns="http://www.w3.org/1999/xhtml" style="display: table-cell; white-space: nowrap; line-height: 1.5; max-width: 200px; text-align: center;"><span class="nodeLabel "><p>User</p></span></div></foreignObject></g></g><g class="node default  " id="flowchart-Admin-1" transform="translate(2552.15625, 27.5)"><polygon points="0,0 60.359375,0 60.359375,-39 0,-39 0,0 -8,0 68.359375,0 68.359375,-39 -8,-39 -8,0" class="label-container" transform="translate(-30.1796875,19.5)"/><g class="label" style="" transform="translate(-22.6796875, -12)"><rect/><foreignObject width="45.359375" height="24"><div xmlns="http://www.w3.org/1999/xhtml" style="display: table-cell; white-space: nowrap; line-height: 1.5; max-width: 200px; text-align: center;"><span class="nodeLabel "><p>Admin</p></span></div></foreignObject></g></g><g class="node default  " id="flowchart-UC_Login-2" transform="translate(2542.15625, 153.5)"><polygon points="0,0 127.0625,0 127.0625,-39 0,-39 0,0 -8,0 135.0625,0 135.0625,-39 -8,-39 -8,0" class="label-container" transform="translate(-63.53125,19.5)"/><g class="label" style="" transform="translate(-56.03125, -12)"><rect/><foreignObject width="112.0625" height="24"><div xmlns="http://www.w3.org/1999/xhtml" style="display: table-cell; white-space: nowrap; line-height: 1.5; max-width: 200px; text-align: center;"><span class="nodeLabel "><p>Login / Register</p></span></div></foreignObject></g></g><g class="node default  " id="flowchart-UC_ViewDashboard-3" transform="translate(1743.65625, 153.5)"><polygon points="0,0 213.9375,0 213.9375,-39 0,-39 0,0 -8,0 221.9375,0 221.9375,-39 -8,-39 -8,0" class="label-container" transform="translate(-106.96875,19.5)"/><g class="label" style="" transform="translate(-99.46875, -12)"><rect/><foreignObject width="198.9375" height="24"><div xmlns="http://www.w3.org/1999/xhtml" style="display: table-cell; white-space: nowrap; line-height: 1.5; max-width: 200px; text-align: center;"><span class="nodeLabel "><p>View Dashboard &amp; Holdings</p></span></div></foreignObject></g></g><g class="node default  " id="flowchart-UC_Trade-4" transform="translate(1476.484375, 153.5)"><polygon points="0,0 188.40625,0 188.40625,-39 0,-39 0,0 -8,0 196.40625,0 196.40625,-39 -8,-39 -8,0" class="label-container" transform="translate(-94.203125,19.5)"/><g class="label" style="" transform="translate(-86.703125, -12)"><rect/><foreignObject width="173.40625" height="24"><div xmlns="http://www.w3.org/1999/xhtml" style="display: table-cell; white-space: nowrap; line-height: 1.5; max-width: 200px; text-align: center;"><span class="nodeLabel "><p>Perform Buy/Sell Trades</p></span></div></foreignObject></g></g><g class="node default  " id="flowchart-UC_Invoice-5" transform="translate(1208.78125, 153.5)"><polygon points="0,0 215,0 215,-63 0,-63 0,0 -8,0 223,0 223,-63 -8,-63 -8,0" class="label-container" transform="translate(-107.5,31.5)"/><g class="label" style="" transform="translate(-100, -24)"><rect/><foreignObject width="200" height="48"><div xmlns="http://www.w3.org/1999/xhtml" style="display: table; white-space: break-spaces; line-height: 1.5; max-width: 200px; text-align: center; width: 200px;"><span class="nodeLabel "><p>Download Transaction Invoices</p></span></div></foreignObject></g></g><g class="node default  " id="flowchart-UC_Dividend-6" transform="translate(964.640625, 153.5)"><polygon points="0,0 141.28125,0 141.28125,-39 0,-39 0,0 -8,0 149.28125,0 149.28125,-39 -8,-39 -8,0" class="label-container" transform="translate(-70.640625,19.5)"/><g class="label" style="" transform="translate(-63.140625, -12)"><rect/><foreignObject width="126.28125" height="24"><div xmlns="http://www.w3.org/1999/xhtml" style="display: table-cell; white-space: nowrap; line-height: 1.5; max-width: 200px; text-align: center;"><span class="nodeLabel "><p>Record Dividends</p></span></div></foreignObject></g></g><g class="node default  " id="flowchart-UC_Notifications-7" transform="translate(720.5, 153.5)"><polygon points="0,0 215,0 215,-63 0,-63 0,0 -8,0 223,0 223,-63 -8,-63 -8,0" class="label-container" transform="translate(-107.5,31.5)"/><g class="label" style="" transform="translate(-100, -24)"><rect/><foreignObject width="200" height="48"><div xmlns="http://www.w3.org/1999/xhtml" style="display: table; white-space: break-spaces; line-height: 1.5; max-width: 200px; text-align: center; width: 200px;"><span class="nodeLabel "><p>Manage Notification Preferences</p></span></div></foreignObject></g></g><g class="node default  " id="flowchart-UC_Reports-8" transform="translate(439.5, 153.5)"><polygon points="0,0 215,0 215,-63 0,-63 0,0 -8,0 223,0 223,-63 -8,-63 -8,0" class="label-container" transform="translate(-107.5,31.5)"/><g class="label" style="" transform="translate(-100, -24)"><rect/><foreignObject width="200" height="48"><div xmlns="http://www.w3.org/1999/xhtml" style="display: table; white-space: break-spaces; line-height: 1.5; max-width: 200px; text-align: center; width: 200px;"><span class="nodeLabel "><p>Generate Portfolio Snapshots</p></span></div></foreignObject></g></g><g class="node default  " id="flowchart-UC_ViewPrediction-9" transform="translate(158.5, 153.5)"><polygon points="0,0 215,0 215,-63 0,-63 0,0 -8,0 223,0 223,-63 -8,-63 -8,0" class="label-container" transform="translate(-107.5,31.5)"/><g class="label" style="" transform="translate(-100, -24)"><rect/><foreignObject width="200" height="48"><div xmlns="http://www.w3.org/1999/xhtml" style="display: table; white-space: break-spaces; line-height: 1.5; max-width: 200px; text-align: center; width: 200px;"><span class="nodeLabel "><p>View Price Prediction &amp; Sentiment</p></span></div></foreignObject></g></g><g class="node default  " id="flowchart-UC_DatasetManage-10" transform="translate(2024.125, 153.5)"><polygon points="0,0 215,0 215,-63 0,-63 0,0 -8,0 223,0 223,-63 -8,-63 -8,0" class="label-container" transform="translate(-107.5,31.5)"/><g class="label" style="" transform="translate(-100, -24)"><rect/><foreignObject width="200" height="48"><div xmlns="http://www.w3.org/1999/xhtml" style="display: table; white-space: break-spaces; line-height: 1.5; max-width: 200px; text-align: center; width: 200px;"><span class="nodeLabel "><p>Manage Prediction Datasets</p></span></div></foreignObject></g></g><g class="node default  " id="flowchart-UC_ManageCompanies-11" transform="translate(3031.7890625, 153.5)"><polygon points="0,0 158.203125,0 158.203125,-39 0,-39 0,0 -8,0 166.203125,0 166.203125,-39 -8,-39 -8,0" class="label-container" transform="translate(-79.1015625,19.5)"/><g class="label" style="" transform="translate(-71.6015625, -12)"><rect/><foreignObject width="143.203125" height="24"><div xmlns="http://www.w3.org/1999/xhtml" style="display: table-cell; white-space: nowrap; line-height: 1.5; max-width: 200px; text-align: center;"><span class="nodeLabel "><p>Manage Companies</p></span></div></foreignObject></g></g><g class="node default  " id="flowchart-UC_ManageBrokers-12" transform="translate(2779.1875, 153.5)"><polygon points="0,0 215,0 215,-63 0,-63 0,0 -8,0 223,0 223,-63 -8,-63 -8,0" class="label-container" transform="translate(-107.5,31.5)"/><g class="label" style="" transform="translate(-100, -24)"><rect/><foreignObject width="200" height="48"><div xmlns="http://www.w3.org/1999/xhtml" style="display: table; white-space: break-spaces; line-height: 1.5; max-width: 200px; text-align: center; width: 200px;"><span class="nodeLabel "><p>Manage Brokers &amp; Commissions</p></span></div></foreignObject></g></g><g class="node default  " id="flowchart-UC_Monitor-13" transform="translate(2305.125, 153.5)"><polygon points="0,0 215,0 215,-63 0,-63 0,0 -8,0 223,0 223,-63 -8,-63 -8,0" class="label-container" transform="translate(-107.5,31.5)"/><g class="label" style="" transform="translate(-100, -24)"><rect/><foreignObject width="200" height="48"><div xmlns="http://www.w3.org/1999/xhtml" style="display: table; white-space: break-spaces; line-height: 1.5; max-width: 200px; text-align: center; width: 200px;"><span class="nodeLabel "><p>Monitor System Health &amp; Logs</p></span></div></foreignObject></g></g></g></g></g></svg>